<svg width="147" height="16" viewBox="0 0 147 16" fill="none" xmlns="http://www.w3.org/2000/svg">
<path d="M7.28 15.18C6.85333 15.18 6.5 15.0867 6.22 14.9C5.95333 14.7 5.73333 14.4 5.56 14L0.52 2.8C0.333333 2.4 0.28 2.04667 0.36 1.74C0.44 1.42 0.606667 1.17333 0.86 0.999999C1.11333 0.813332 1.42 0.719999 1.78 0.719999C2.23333 0.719999 2.58 0.826666 2.82 1.04C3.06 1.24 3.26 1.54 3.42 1.94L7.84 12.16H6.84L11.26 1.92C11.4333 1.52 11.64 1.22 11.88 1.02C12.12 0.819999 12.4533 0.719999 12.88 0.719999C13.24 0.719999 13.5333 0.813332 13.76 0.999999C14 1.17333 14.1467 1.42 14.2 1.74C14.2667 2.04667 14.2133 2.4 14.04 2.8L9 14C8.81333 14.4 8.58667 14.7 8.32 14.9C8.06667 15.0867 7.72 15.18 7.28 15.18ZM18.1488 15.16C17.6554 15.16 17.2754 15.02 17.0088 14.74C16.7554 14.4467 16.6288 14.04 16.6288 13.52V6.68C16.6288 6.14667 16.7554 5.74 17.0088 5.46C17.2754 5.16667 17.6554 5.02 18.1488 5.02C18.6288 5.02 18.9954 5.16667 19.2488 5.46C19.5154 5.74 19.6488 6.14667 19.6488 6.68V13.52C19.6488 14.04 19.5221 14.4467 19.2688 14.74C19.0154 15.02 18.6421 15.16 18.1488 15.16ZM18.1488 3.38C17.5888 3.38 17.1554 3.25333 16.8488 3C16.5554 2.73333 16.4088 2.36 16.4088 1.88C16.4088 1.38667 16.5554 1.01333 16.8488 0.76C17.1554 0.493333 17.5888 0.359999 18.1488 0.359999C18.7088 0.359999 19.1354 0.493333 19.4288 0.76C19.7221 1.01333 19.8688 1.38667 19.8688 1.88C19.8688 2.36 19.7221 2.73333 19.4288 3C19.1354 3.25333 18.7088 3.38 18.1488 3.38ZM25.8003 15.22C24.947 15.22 24.1936 15.0133 23.5403 14.6C22.9003 14.1867 22.4003 13.5933 22.0403 12.82C21.6803 12.0467 21.5003 11.1333 21.5003 10.08C21.5003 9.02667 21.6803 8.12 22.0403 7.36C22.4003 6.6 22.9003 6.01333 23.5403 5.6C24.1936 5.18667 24.947 4.98 25.8003 4.98C26.5736 4.98 27.2536 5.16667 27.8403 5.54C28.4403 5.91333 28.847 6.4 29.0603 7H28.8403V2.26C28.8403 1.75333 28.967 1.37333 29.2203 1.12C29.4736 0.853333 29.847 0.719999 30.3403 0.719999C30.8203 0.719999 31.1936 0.853333 31.4603 1.12C31.727 1.37333 31.8603 1.75333 31.8603 2.26V13.64C31.8603 14.1333 31.727 14.5133 31.4603 14.78C31.207 15.0467 30.8403 15.18 30.3603 15.18C29.8803 15.18 29.507 15.0467 29.2403 14.78C28.987 14.5133 28.8603 14.1333 28.8603 13.64V12.28L29.0803 13.06C28.8936 13.7133 28.4936 14.24 27.8803 14.64C27.2803 15.0267 26.587 15.22 25.8003 15.22ZM26.7003 12.96C27.1403 12.96 27.5203 12.8533 27.8403 12.64C28.1603 12.4267 28.4136 12.1133 28.6003 11.7C28.787 11.2733 28.8803 10.7333 28.8803 10.08C28.8803 9.10667 28.6803 8.39333 28.2803 7.94C27.8803 7.47333 27.3536 7.24 26.7003 7.24C26.2736 7.24 25.8936 7.34 25.5603 7.54C25.2403 7.74 24.987 8.05333 24.8003 8.48C24.627 8.89333 24.5403 9.42667 24.5403 10.08C24.5403 11.0533 24.7403 11.78 25.1403 12.26C25.5403 12.7267 26.0603 12.96 26.7003 12.96ZM37.5073 15.22C36.7873 15.22 36.1407 15.08 35.5673 14.8C34.994 14.52 34.5473 14.14 34.2273 13.66C33.9073 13.18 33.7473 12.64 33.7473 12.04C33.7473 11.32 33.934 10.7533 34.3073 10.34C34.6807 9.91333 35.2873 9.61333 36.1273 9.44C36.9673 9.25333 38.0807 9.16 39.4673 9.16H40.5273V10.72H39.4873C38.8073 10.72 38.254 10.76 37.8273 10.84C37.414 10.9067 37.114 11.0267 36.9273 11.2C36.754 11.3733 36.6673 11.6133 36.6673 11.92C36.6673 12.2933 36.794 12.6 37.0473 12.84C37.314 13.08 37.694 13.2 38.1873 13.2C38.574 13.2 38.914 13.1133 39.2073 12.94C39.514 12.7533 39.754 12.5067 39.9273 12.2C40.1007 11.88 40.1873 11.52 40.1873 11.12V8.82C40.1873 8.23333 40.054 7.82 39.7873 7.58C39.5207 7.32667 39.0673 7.2 38.4273 7.2C38.0673 7.2 37.674 7.24667 37.2473 7.34C36.834 7.42 36.374 7.56 35.8673 7.76C35.574 7.89333 35.314 7.92667 35.0873 7.86C34.8607 7.78 34.6873 7.64667 34.5673 7.46C34.4473 7.26 34.3873 7.04667 34.3873 6.82C34.3873 6.58 34.454 6.35333 34.5873 6.14C34.7207 5.91333 34.9407 5.74667 35.2473 5.64C35.874 5.38667 36.4607 5.21333 37.0073 5.12C37.5673 5.02667 38.0807 4.98 38.5473 4.98C39.574 4.98 40.414 5.13333 41.0673 5.44C41.734 5.73333 42.234 6.19333 42.5673 6.82C42.9007 7.43333 43.0673 8.22667 43.0673 9.2V13.64C43.0673 14.1333 42.9473 14.5133 42.7073 14.78C42.4673 15.0467 42.1207 15.18 41.6673 15.18C41.214 15.18 40.8607 15.0467 40.6073 14.78C40.3673 14.5133 40.2473 14.1333 40.2473 13.64V12.9L40.3873 13.02C40.3073 13.4733 40.134 13.8667 39.8673 14.2C39.614 14.52 39.2873 14.7733 38.8873 14.96C38.4873 15.1333 38.0273 15.22 37.5073 15.22Z" fill="#FD377E"/>
<path d="M52.7461 15.18C52.2394 15.18 51.8461 15.04 51.5661 14.76C51.2994 14.48 51.1661 14.0733 51.1661 13.54V2.52C51.1661 2 51.3061 1.6 51.5861 1.32C51.8661 1.04 52.2661 0.899999 52.7861 0.899999H59.6261C60.0261 0.899999 60.3261 1.00667 60.5261 1.22C60.7394 1.42 60.8461 1.71333 60.8461 2.1C60.8461 2.5 60.7394 2.80667 60.5261 3.02C60.3261 3.22 60.0261 3.32 59.6261 3.32H54.2661V6.76H59.1861C59.5861 6.76 59.8928 6.86667 60.1061 7.08C60.3194 7.28 60.4261 7.57333 60.4261 7.96C60.4261 8.34667 60.3194 8.64667 60.1061 8.86C59.8928 9.07333 59.5861 9.18 59.1861 9.18H54.2661V13.54C54.2661 14.6333 53.7594 15.18 52.7461 15.18ZM64.6331 15.16C64.1398 15.16 63.7598 15.02 63.4931 14.74C63.2398 14.4467 63.1131 14.04 63.1131 13.52V6.68C63.1131 6.14667 63.2398 5.74 63.4931 5.46C63.7598 5.16667 64.1398 5.02 64.6331 5.02C65.1131 5.02 65.4798 5.16667 65.7331 5.46C65.9998 5.74 66.1331 6.14667 66.1331 6.68V13.52C66.1331 14.04 66.0065 14.4467 65.7531 14.74C65.4998 15.02 65.1265 15.16 64.6331 15.16ZM64.6331 3.38C64.0731 3.38 63.6398 3.25333 63.3331 3C63.0398 2.73333 62.8931 2.36 62.8931 1.88C62.8931 1.38667 63.0398 1.01333 63.3331 0.76C63.6398 0.493333 64.0731 0.359999 64.6331 0.359999C65.1931 0.359999 65.6198 0.493333 65.9131 0.76C66.2065 1.01333 66.3531 1.38667 66.3531 1.88C66.3531 2.36 66.2065 2.73333 65.9131 3C65.6198 3.25333 65.1931 3.38 64.6331 3.38ZM69.9847 15.18C69.4914 15.18 69.1114 15.0467 68.8447 14.78C68.5914 14.5133 68.4647 14.1333 68.4647 13.64V6.54C68.4647 6.04667 68.5914 5.67333 68.8447 5.42C69.1114 5.15333 69.478 5.02 69.9447 5.02C70.4247 5.02 70.7914 5.15333 71.0447 5.42C71.298 5.67333 71.4247 6.04667 71.4247 6.54V7.68L71.2047 7.02C71.5114 6.36667 71.9647 5.86667 72.5647 5.52C73.178 5.16 73.8714 4.98 74.6447 4.98C75.4314 4.98 76.078 5.13333 76.5847 5.44C77.0914 5.73333 77.4714 6.18667 77.7247 6.8C77.978 7.4 78.1047 8.16667 78.1047 9.1V13.64C78.1047 14.1333 77.9714 14.5133 77.7047 14.78C77.4514 15.0467 77.078 15.18 76.5847 15.18C76.1047 15.18 75.7314 15.0467 75.4647 14.78C75.2114 14.5133 75.0847 14.1333 75.0847 13.64V9.24C75.0847 8.56 74.958 8.07333 74.7047 7.78C74.4647 7.47333 74.0914 7.32 73.5847 7.32C72.9447 7.32 72.4314 7.52 72.0447 7.92C71.6714 8.32 71.4847 8.85333 71.4847 9.52V13.64C71.4847 14.6667 70.9847 15.18 69.9847 15.18ZM83.6792 15.22C82.9592 15.22 82.3126 15.08 81.7392 14.8C81.1659 14.52 80.7192 14.14 80.3992 13.66C80.0792 13.18 79.9192 12.64 79.9192 12.04C79.9192 11.32 80.1059 10.7533 80.4792 10.34C80.8526 9.91333 81.4592 9.61333 82.2992 9.44C83.1392 9.25333 84.2526 9.16 85.6392 9.16H86.6992V10.72H85.6592C84.9792 10.72 84.4259 10.76 83.9992 10.84C83.5859 10.9067 83.2859 11.0267 83.0992 11.2C82.9259 11.3733 82.8392 11.6133 82.8392 11.92C82.8392 12.2933 82.9659 12.6 83.2192 12.84C83.4859 13.08 83.8659 13.2 84.3592 13.2C84.7459 13.2 85.0859 13.1133 85.3792 12.94C85.6859 12.7533 85.9259 12.5067 86.0992 12.2C86.2726 11.88 86.3592 11.52 86.3592 11.12V8.82C86.3592 8.23333 86.2259 7.82 85.9592 7.58C85.6926 7.32667 85.2392 7.2 84.5992 7.2C84.2392 7.2 83.8459 7.24667 83.4192 7.34C83.0059 7.42 82.5459 7.56 82.0392 7.76C81.7459 7.89333 81.4859 7.92667 81.2592 7.86C81.0326 7.78 80.8592 7.64667 80.7392 7.46C80.6192 7.26 80.5592 7.04667 80.5592 6.82C80.5592 6.58 80.6259 6.35333 80.7592 6.14C80.8926 5.91333 81.1126 5.74667 81.4192 5.64C82.0459 5.38667 82.6326 5.21333 83.1792 5.12C83.7392 5.02667 84.2526 4.98 84.7192 4.98C85.7459 4.98 86.5859 5.13333 87.2392 5.44C87.9059 5.73333 88.4059 6.19333 88.7392 6.82C89.0726 7.43333 89.2392 8.22667 89.2392 9.2V13.64C89.2392 14.1333 89.1192 14.5133 88.8792 14.78C88.6392 15.0467 88.2926 15.18 87.8392 15.18C87.3859 15.18 87.0326 15.0467 86.7792 14.78C86.5392 14.5133 86.4192 14.1333 86.4192 13.64V12.9L86.5592 13.02C86.4792 13.4733 86.3059 13.8667 86.0392 14.2C85.7859 14.52 85.4592 14.7733 85.0592 14.96C84.6592 15.1333 84.1992 15.22 83.6792 15.22ZM93.012 15.18C92.5187 15.18 92.1387 15.0467 91.872 14.78C91.6187 14.5133 91.492 14.1333 91.492 13.64V6.54C91.492 6.04667 91.6187 5.67333 91.872 5.42C92.1387 5.15333 92.5054 5.02 92.972 5.02C93.452 5.02 93.8187 5.15333 94.072 5.42C94.3254 5.67333 94.452 6.04667 94.452 6.54V7.68L94.232 7.02C94.5387 6.36667 94.992 5.86667 95.592 5.52C96.2054 5.16 96.8987 4.98 97.672 4.98C98.4587 4.98 99.1054 5.13333 99.612 5.44C100.119 5.73333 100.499 6.18667 100.752 6.8C101.005 7.4 101.132 8.16667 101.132 9.1V13.64C101.132 14.1333 100.999 14.5133 100.732 14.78C100.479 15.0467 100.105 15.18 99.612 15.18C99.132 15.18 98.7587 15.0467 98.492 14.78C98.2387 14.5133 98.112 14.1333 98.112 13.64V9.24C98.112 8.56 97.9854 8.07333 97.732 7.78C97.492 7.47333 97.1187 7.32 96.612 7.32C95.972 7.32 95.4587 7.52 95.072 7.92C94.6987 8.32 94.512 8.85333 94.512 9.52V13.64C94.512 14.6667 94.012 15.18 93.012 15.18ZM108.167 15.22C107.1 15.22 106.167 15.0133 105.367 14.6C104.58 14.1733 103.973 13.5733 103.547 12.8C103.12 12.0267 102.907 11.1133 102.907 10.06C102.907 9.27333 103.027 8.56667 103.267 7.94C103.507 7.31333 103.853 6.78 104.307 6.34C104.773 5.9 105.333 5.56667 105.987 5.34C106.64 5.1 107.367 4.98 108.167 4.98C108.58 4.98 109.02 5.03333 109.487 5.14C109.953 5.23333 110.413 5.4 110.867 5.64C111.133 5.76 111.313 5.93333 111.407 6.16C111.513 6.37333 111.553 6.6 111.527 6.84C111.5 7.06667 111.413 7.27333 111.267 7.46C111.133 7.63333 110.96 7.75333 110.747 7.82C110.533 7.87333 110.293 7.83333 110.027 7.7C109.773 7.55333 109.507 7.44667 109.227 7.38C108.96 7.31333 108.707 7.28 108.467 7.28C108.067 7.28 107.713 7.34667 107.407 7.48C107.1 7.6 106.84 7.78 106.627 8.02C106.427 8.24667 106.267 8.53333 106.147 8.88C106.04 9.22667 105.987 9.62667 105.987 10.08C105.987 10.96 106.2 11.6533 106.627 12.16C107.067 12.6533 107.68 12.9 108.467 12.9C108.707 12.9 108.96 12.8733 109.227 12.82C109.493 12.7533 109.76 12.6467 110.027 12.5C110.293 12.3667 110.533 12.3333 110.747 12.4C110.96 12.4667 111.127 12.5933 111.247 12.78C111.38 12.9533 111.453 13.16 111.467 13.4C111.493 13.6267 111.453 13.8533 111.347 14.08C111.253 14.2933 111.08 14.46 110.827 14.58C110.373 14.8067 109.92 14.9667 109.467 15.06C109.013 15.1667 108.58 15.22 108.167 15.22ZM117.842 15.22C116.682 15.22 115.682 15.0133 114.842 14.6C114.015 14.1733 113.375 13.58 112.922 12.82C112.482 12.0467 112.262 11.14 112.262 10.1C112.262 9.08667 112.475 8.2 112.902 7.44C113.329 6.66667 113.922 6.06667 114.682 5.64C115.455 5.2 116.329 4.98 117.302 4.98C118.009 4.98 118.649 5.1 119.222 5.34C119.795 5.56667 120.289 5.9 120.702 6.34C121.115 6.76667 121.429 7.29333 121.642 7.92C121.855 8.53333 121.962 9.22 121.962 9.98C121.962 10.2333 121.882 10.4267 121.722 10.56C121.562 10.68 121.329 10.74 121.022 10.74H114.742V9.18H119.782L119.462 9.46C119.462 8.91333 119.382 8.46 119.222 8.1C119.062 7.72667 118.829 7.44667 118.522 7.26C118.229 7.07333 117.862 6.98 117.422 6.98C116.929 6.98 116.509 7.09333 116.162 7.32C115.815 7.54667 115.549 7.87333 115.362 8.3C115.175 8.72667 115.082 9.24 115.082 9.84V10C115.082 11.0133 115.315 11.76 115.782 12.24C116.262 12.72 116.969 12.96 117.902 12.96C118.222 12.96 118.589 12.92 119.002 12.84C119.415 12.76 119.802 12.6333 120.162 12.46C120.469 12.3133 120.742 12.2667 120.982 12.32C121.222 12.36 121.409 12.4667 121.542 12.64C121.675 12.8133 121.749 13.0133 121.762 13.24C121.789 13.4667 121.742 13.6933 121.622 13.92C121.502 14.1333 121.302 14.3133 121.022 14.46C120.569 14.7133 120.055 14.9 119.482 15.02C118.922 15.1533 118.375 15.22 117.842 15.22ZM125.239 15.16C124.745 15.16 124.365 15.02 124.099 14.74C123.845 14.4467 123.719 14.04 123.719 13.52V6.68C123.719 6.14667 123.845 5.74 124.099 5.46C124.365 5.16667 124.745 5.02 125.239 5.02C125.719 5.02 126.085 5.16667 126.339 5.46C126.605 5.74 126.739 6.14667 126.739 6.68V13.52C126.739 14.04 126.612 14.4467 126.359 14.74C126.105 15.02 125.732 15.16 125.239 15.16ZM125.239 3.38C124.679 3.38 124.245 3.25333 123.939 3C123.645 2.73333 123.499 2.36 123.499 1.88C123.499 1.38667 123.645 1.01333 123.939 0.76C124.245 0.493333 124.679 0.359999 125.239 0.359999C125.799 0.359999 126.225 0.493333 126.519 0.76C126.812 1.01333 126.959 1.38667 126.959 1.88C126.959 2.36 126.812 2.73333 126.519 3C126.225 3.25333 125.799 3.38 125.239 3.38ZM130.63 15.18C130.123 15.18 129.737 15.0467 129.47 14.78C129.203 14.5133 129.07 14.1333 129.07 13.64V6.54C129.07 6.04667 129.197 5.67333 129.45 5.42C129.717 5.15333 130.083 5.02 130.55 5.02C131.03 5.02 131.397 5.15333 131.65 5.42C131.903 5.67333 132.03 6.04667 132.03 6.54V7.58H131.83C131.99 6.78 132.343 6.16 132.89 5.72C133.437 5.28 134.143 5.03333 135.01 4.98C135.343 4.95333 135.597 5.04 135.77 5.24C135.957 5.42667 136.057 5.74 136.07 6.18C136.097 6.59333 136.01 6.92 135.81 7.16C135.623 7.4 135.303 7.54667 134.85 7.6L134.39 7.64C133.63 7.70667 133.063 7.92667 132.69 8.3C132.33 8.67333 132.15 9.21333 132.15 9.92V13.64C132.15 14.1333 132.017 14.5133 131.75 14.78C131.497 15.0467 131.123 15.18 130.63 15.18ZM140.535 15.22C139.815 15.22 139.168 15.08 138.595 14.8C138.021 14.52 137.575 14.14 137.255 13.66C136.935 13.18 136.775 12.64 136.775 12.04C136.775 11.32 136.961 10.7533 137.335 10.34C137.708 9.91333 138.315 9.61333 139.155 9.44C139.995 9.25333 141.108 9.16 142.495 9.16H143.555V10.72H142.515C141.835 10.72 141.281 10.76 140.855 10.84C140.441 10.9067 140.141 11.0267 139.955 11.2C139.781 11.3733 139.695 11.6133 139.695 11.92C139.695 12.2933 139.821 12.6 140.075 12.84C140.341 13.08 140.721 13.2 141.215 13.2C141.601 13.2 141.941 13.1133 142.235 12.94C142.541 12.7533 142.781 12.5067 142.955 12.2C143.128 11.88 143.215 11.52 143.215 11.12V8.82C143.215 8.23333 143.081 7.82 142.815 7.58C142.548 7.32667 142.095 7.2 141.455 7.2C141.095 7.2 140.701 7.24667 140.275 7.34C139.861 7.42 139.401 7.56 138.895 7.76C138.601 7.89333 138.341 7.92667 138.115 7.86C137.888 7.78 137.715 7.64667 137.595 7.46C137.475 7.26 137.415 7.04667 137.415 6.82C137.415 6.58 137.481 6.35333 137.615 6.14C137.748 5.91333 137.968 5.74667 138.275 5.64C138.901 5.38667 139.488 5.21333 140.035 5.12C140.595 5.02667 141.108 4.98 141.575 4.98C142.601 4.98 143.441 5.13333 144.095 5.44C144.761 5.73333 145.261 6.19333 145.595 6.82C145.928 7.43333 146.095 8.22667 146.095 9.2V13.64C146.095 14.1333 145.975 14.5133 145.735 14.78C145.495 15.0467 145.148 15.18 144.695 15.18C144.241 15.18 143.888 15.0467 143.635 14.78C143.395 14.5133 143.275 14.1333 143.275 13.64V12.9L143.415 13.02C143.335 13.4733 143.161 13.8667 142.895 14.2C142.641 14.52 142.315 14.7733 141.915 14.96C141.515 15.1333 141.055 15.22 140.535 15.22Z" fill="white"/>
</svg>
